<svg xmlns="http://www.w3.org/2000/svg" width="141" height="32" viewBox="0 0 141 32" fill="none"><path d="M37.2942 9.28582C34.8468 9.28582 32.7039 10.4536 30.9248 12.7568L30.503 13.3031V9.28582H23.2822V31.721H30.503V19.5743C30.503 18.3559 30.8369 17.3763 31.495 16.6632C32.1057 15.9952 32.94 15.6564 33.9751 15.6564C34.9858 15.6564 35.7947 15.9966 36.3819 16.6705C36.9827 17.3859 37.2876 18.3628 37.2876 19.5743V31.721H44.5057V17.1055C44.5057 14.6699 43.8602 12.7352 42.5867 11.3557C41.3156 9.98231 39.535 9.28582 37.2942 9.28582Z" fill="#1B1B1B"></path><path d="M49.392 8.13595C51.6352 8.13595 53.4599 6.31126 53.4599 4.06805C53.4599 1.82498 51.6352 0 49.392 0C47.1489 0 45.3239 1.82498 45.3239 4.06805C45.3239 6.31126 47.1489 8.13595 49.392 8.13595Z" fill="#1B1B1B"></path><path d="M98.1632 24.1411C97.282 25.1621 96.1052 25.6799 94.6658 25.6799C93.2829 25.6799 92.0949 25.1649 91.1297 24.1439C90.2301 23.1331 89.774 21.9092 89.774 20.5059C89.774 19.0499 90.2168 17.8252 91.086 16.8709C91.9645 15.8496 93.1412 15.3316 94.5834 15.3316C95.9665 15.3316 97.1548 15.8468 98.12 16.8682C99.0193 17.8811 99.4752 19.1051 99.4752 20.5059C99.4752 21.9628 99.0324 23.1874 98.1632 24.1411ZM68.1749 18.9195L68.2225 18.6436C68.7004 15.8825 70.0582 14.4826 72.2581 14.4826C73.3724 14.4826 74.3014 14.8605 75.0231 15.6097C75.7284 16.3732 76.1574 17.3985 76.2981 18.6577L76.3273 18.9195H68.1749ZM53.4723 12.8106H50.8186V10.1694H53.4723V12.8106ZM94.6658 9.2858C91.2631 9.2858 88.3906 10.4071 86.1273 12.6199C84.3222 14.3612 83.2382 16.4303 82.8884 18.782C82.5769 16.4011 81.7489 14.3799 80.4164 12.7644C78.4758 10.4562 75.7178 9.2858 72.2192 9.2858C69.8013 9.2858 67.6828 9.94046 65.923 11.2313L65.548 11.5062V9.2858H60.5307V8.68029C60.5307 7.17504 61.6765 6.37949 63.2604 6.37949C65.0849 6.37949 65.5634 7.21205 65.5892 7.21936V2.48118C64.3209 1.99704 63.1452 1.78952 60.805 1.78952C58.3455 1.78952 56.552 2.54701 55.3358 3.76428C54.5009 4.59783 53.8822 5.69571 53.6344 7.20785L53.5516 7.78865C53.4983 8.26661 53.4723 9.2858 53.4723 9.2858H45.7829V31.721H60.6518V15.454H62.4492L62.3106 15.7815C61.7097 17.1989 61.4051 18.7885 61.4051 20.5059C61.4051 23.8496 62.4837 26.5843 64.6107 28.6338C66.7397 30.6847 69.531 31.7245 72.9072 31.7245C76.7258 31.7245 79.814 30.3176 82.0895 27.5417L78.1811 24.3028C76.6733 25.7266 75.0363 26.4479 73.3118 26.4479C70.6655 26.4479 68.9952 25.1768 68.3476 22.6699L68.2715 22.3755H82.9054C83.27 24.6908 84.3366 26.725 86.0861 28.4316C88.3504 30.6165 91.2093 31.7245 94.5834 31.7245C97.9845 31.7245 100.857 30.6034 103.122 28.3916C105.359 26.234 106.493 23.581 106.493 20.5059C106.493 17.4027 105.372 14.7359 103.163 12.5802C100.898 10.3943 98.0392 9.2858 94.6658 9.2858Z" fill="#1B1B1B"></path><path d="M14.6424 20.7965C14.6424 25.4847 11.0078 25.258 11.0078 25.258C11.0078 25.258 7.29885 25.4847 7.29885 20.7965V9.28583H0V19.3502C0 23.4973 1.05953 26.671 3.14913 28.7828C4.79592 30.4444 7.06854 31.4324 9.90653 31.721C9.97627 31.728 11.8987 31.7284 11.9721 31.721C14.8298 31.4322 17.1236 30.4441 18.7918 28.7821C20.9311 26.6415 22.0157 23.401 22.0157 19.1509V9.28583H14.6424V20.7965Z" fill="#1B1B1B"></path><path d="M122.873 24.3661C121.968 25.3284 120.835 25.8163 119.506 25.8163C118.202 25.8163 117.08 25.3137 116.173 24.3224C115.274 23.3383 114.818 22.0868 114.818 20.6023C114.818 19.0918 115.274 17.8262 116.173 16.8408C117.08 15.8497 118.202 15.3471 119.506 15.3471C120.836 15.3471 121.969 15.8354 122.875 16.8007C123.776 17.785 124.233 19.0368 124.233 20.5211C124.233 22.059 123.777 23.351 122.873 24.3661ZM128.477 12.3419C126.698 10.378 124.469 9.38223 121.854 9.38223C119.375 9.38223 117.203 10.4971 115.398 12.6963L114.98 13.2049V1.83879H107.759V31.7209H114.98V28.2239L115.394 28.7063C117.147 30.7466 119.333 31.781 121.892 31.781C124.51 31.781 126.739 30.7723 128.518 28.7822C130.384 26.7069 131.33 23.9412 131.33 20.5622C131.33 17.2111 130.37 14.4452 128.477 12.3419Z" fill="#1B1B1B"></path><path d="M136.258 31.9792C138.827 32.2357 140.977 30.0857 140.72 27.5172C140.53 25.6157 138.993 24.0775 137.091 23.8873C134.522 23.6302 132.371 25.781 132.629 28.35C132.819 30.2515 134.357 31.7893 136.258 31.9792Z" fill="#0018FE"></path></svg>
